<svg width="12" height="12" viewBox="0 0 12 12" fill="none" xmlns="http://www.w3.org/2000/svg">
<path opacity="0.9" fill-rule="evenodd" clip-rule="evenodd" d="M10.9497 1.05022C10.5592 0.659693 9.92606 0.659693 9.53553 1.05022L5.9982 4.58755L2.46101 1.05036C2.07049 0.659831 1.43732 0.659831 1.0468 1.05036C0.656275 1.44088 0.656275 2.07404 1.0468 2.46457L4.58399 6.00176L1.05025 9.5355C0.659729 9.92602 0.659728 10.5592 1.05025 10.9497C1.44078 11.3402 2.07394 11.3402 2.46447 10.9497L5.9982 7.41597L9.53208 10.9499C9.9226 11.3404 10.5558 11.3404 10.9463 10.9499C11.3368 10.5593 11.3368 9.92616 10.9463 9.53564L7.41242 6.00176L10.9497 2.46443C11.3403 2.07391 11.3403 1.44074 10.9497 1.05022Z" fill="#B4B4B4"/>
</svg>
