<svg width="80" height="28" viewBox="0 0 80 28" fill="none" xmlns="http://www.w3.org/2000/svg">
<path fill-rule="evenodd" clip-rule="evenodd" d="M64.8232 9.25706C64.8232 4.43925 66.981 1.07224 67.1813 0.77008C67.1922 0.753634 67.2021 0.740099 67.2142 0.724453C67.5372 0.304019 68.1252 0.14688 68.6341 0.295566C68.9464 0.386799 69.3182 0.489202 69.7272 0.60183C71.1851 1.00336 73.115 1.53485 74.5003 2.15345C75.6358 2.66153 76.7852 3.3548 77.6518 4.43269C78.5185 5.51057 79.0608 6.97783 79.0608 8.72524C79.0608 10.6056 78.2497 11.9447 77.4294 12.7139C76.8357 13.2721 76.4358 14.058 76.5302 14.8674C76.6291 15.7158 76.666 16.5373 76.6798 17.3017C76.6915 17.9569 76.1566 18.488 75.5014 18.488H74.778C74.5222 18.488 74.315 18.2806 74.3157 18.0248C74.3231 15.1237 74.3308 12.1324 71.7284 9.50282C71.2723 9.04199 71.1732 8.31467 71.561 7.79508C71.9713 7.24543 72.7618 7.14305 73.2489 7.62592C74.3222 8.68988 75.0704 9.83543 75.5801 11.005C75.5965 11.0427 75.6446 11.0547 75.6774 11.0298C75.7149 11.0013 75.7495 10.975 75.798 10.9285C76.2383 10.5106 76.6878 9.92659 76.6878 8.72524C76.6878 7.46691 76.3356 6.65969 75.798 5.99016C75.2604 5.32064 74.5003 4.76982 73.5734 4.35671C72.6464 3.94207 71.671 3.66298 70.7262 3.39264C70.6174 3.3615 70.5089 3.33047 70.401 3.29937C69.4799 3.03384 68.4504 3.38599 68.094 4.27596C67.6441 5.39941 67.1961 7.05718 67.1961 9.25706C67.1961 11.5743 67.8125 12.5667 68.3455 13.0558C68.8785 13.5449 69.5088 13.6256 69.7544 13.6256C70.0611 13.6256 70.593 13.3847 71.2703 13.0779C71.7181 12.8751 72.2399 13.0908 72.4214 13.5478L72.721 14.3026C72.8652 14.6658 72.6968 15.0843 72.3502 15.2647C71.6557 15.6263 70.8287 16.0568 69.7544 16.0568C69.1056 16.0568 67.8589 15.8621 66.7512 14.8412C65.6435 13.8203 64.8232 12.0349 64.8232 9.25706ZM1.9565 25.1422C3.25491 26.4725 4.89126 27.1285 6.82998 27.1285C8.76869 27.1285 10.3873 26.4542 11.7034 25.1057C13.0374 23.7572 13.6955 22.1171 13.6955 20.1855C13.6955 18.2539 13.0374 16.6138 11.7034 15.247C10.3873 13.8803 8.76869 13.2061 6.84776 13.2061C4.92683 13.2061 3.30827 13.8803 1.97429 15.247C0.658096 16.6138 0 18.2721 0 20.2219C0 22.1718 0.658097 23.8119 1.9565 25.1422ZM9.7703 17.1006C10.5707 17.9206 10.962 18.9411 10.962 20.1803C10.9798 21.4012 10.5885 22.4217 9.78808 23.2418C8.98769 24.0618 8.00944 24.4627 6.85333 24.4627C5.69721 24.4627 4.71896 24.0618 3.91857 23.2418C3.13597 22.4217 2.74467 21.4012 2.74467 20.1803C2.74467 18.9594 3.13597 17.9206 3.93636 17.1006C4.73675 16.2806 5.69721 15.8614 6.85333 15.8614C8.00944 15.8614 8.96991 16.2806 9.7703 17.1006ZM17.1616 21.5946V25.6617C17.1616 26.3543 16.6001 26.9157 15.9076 26.9157C15.2151 26.9157 14.6537 26.3543 14.6537 25.6617V18.2114C14.6537 17.5336 15.2031 16.9841 15.8809 16.9841H16.8309C16.9841 16.9841 17.1082 17.1082 17.1082 17.2614C17.1082 17.5499 17.5873 17.7048 17.8091 17.5202C18.407 17.0229 19.2302 16.7108 20.1497 16.7108C21.1991 16.7108 22.1062 17.0752 22.8354 17.7859C23.5647 18.4966 23.9382 19.5171 23.9382 20.8474V25.6617C23.9382 26.3543 23.3768 26.9157 22.6842 26.9157C21.9917 26.9157 21.4303 26.3543 21.4303 25.6617V21.5399C21.4303 19.9545 20.6121 19.0798 19.3849 19.0798C18.0509 19.0798 17.1616 20.1185 17.1616 21.5946ZM33.4362 22.8337C34.0854 22.8337 34.6592 22.3531 34.6592 21.7039C34.6592 20.1549 34.1968 18.9522 33.2897 18.0593C32.3826 17.1663 31.2087 16.7108 29.8035 16.7108C28.3095 16.7108 27.1 17.2028 26.1573 18.1868C25.2147 19.1709 24.7522 20.4101 24.7522 21.9226C24.7522 23.3622 25.1969 24.6014 26.104 25.6036C27.0111 26.6059 28.3095 27.1161 30.017 27.1161C31.2963 27.1161 32.4507 26.8251 33.4892 26.2432C33.9427 25.989 34.0627 25.4099 33.8115 24.9548C33.5135 24.4152 32.8102 24.2549 32.2408 24.491C31.5622 24.7724 30.8021 24.9476 30.1237 24.9476C29.6447 24.9476 29.2233 24.8779 28.8595 24.7391C27.6412 24.2744 28.5621 22.8337 29.866 22.8337H33.4362ZM29.8452 20.9381C28.5567 20.9381 27.6329 19.5275 28.8279 19.0458C29.1287 18.9245 29.463 18.8607 29.8233 18.8607C30.2212 18.8607 30.5831 18.9364 30.8998 19.0795C32.0347 19.5923 31.0905 20.9381 29.8452 20.9381ZM35.1221 23.9279C34.8022 24.3251 34.7684 24.8935 35.115 25.2677C36.2216 26.4623 37.8221 27.1103 39.5646 27.1103C41.0053 27.1103 42.1614 26.7276 43.0507 25.9622C43.94 25.1968 44.3847 24.2128 44.3847 23.0101C44.3847 21.5158 43.6376 20.4042 42.1436 19.657C41.8056 19.493 41.2721 19.2561 40.5428 18.9463L39.2444 18.3632C38.533 17.9987 38.1772 17.5614 38.1772 17.0329C38.1772 16.2493 38.8175 15.7391 39.8669 15.7391C40.4156 15.7391 41.0258 15.8824 41.5846 16.1497C42.2565 16.4711 43.1569 16.4241 43.5897 15.818C43.9166 15.3602 43.8784 14.723 43.4317 14.3812C42.404 13.5946 41.2039 13.2061 39.8314 13.2061C38.5152 13.2061 37.4302 13.5887 36.5942 14.3359C35.7583 15.083 35.3492 16.0124 35.3492 17.1422C35.3492 18.5636 36.0429 19.6753 37.4302 20.4953C37.7859 20.6957 38.3017 20.9509 38.9776 21.2242C39.0828 21.2656 39.1818 21.3046 39.2747 21.3411C39.795 21.5456 40.1251 21.6754 40.276 21.7527C41.0764 22.1354 41.4677 22.6092 41.4677 23.1559C41.4677 24.0123 40.6673 24.5955 39.5824 24.5955C38.7218 24.5955 37.8901 24.3296 37.179 23.8214C36.547 23.3697 35.6094 23.3229 35.1221 23.9279ZM46.2688 18.2415C45.2905 19.2438 44.8103 20.4829 44.8103 21.9408C44.8103 23.4169 45.2905 24.656 46.2688 25.6583C47.247 26.6606 48.4921 27.1708 50.0039 27.1708C51.5158 27.1708 52.7608 26.6606 53.7391 25.6583C54.7173 24.656 55.1975 23.4169 55.1975 21.9408C55.1975 20.4829 54.7173 19.2438 53.7391 18.2415C52.7608 17.221 51.5158 16.7108 50.0039 16.7108C48.4921 16.7108 47.247 17.221 46.2688 18.2415ZM50.0091 24.7656C49.2443 24.7656 48.604 24.4922 48.0882 23.9455C47.5724 23.3806 47.3233 22.7064 47.3233 21.9228C47.3233 21.1392 47.5724 20.4649 48.0882 19.9182C48.604 19.3715 49.2443 19.0982 50.0091 19.0982C50.7739 19.0982 51.3964 19.3715 51.9122 19.9182C52.428 20.4649 52.6948 21.1392 52.6948 21.9228C52.6948 22.7064 52.428 23.3806 51.9122 23.9455C51.3964 24.4922 50.7739 24.7656 50.0091 24.7656ZM58.5312 13.155C59.1182 13.7382 59.1182 14.7951 58.5312 15.3965C57.9443 15.9978 56.9126 15.9978 56.3257 15.3965C55.7387 14.7951 55.7387 13.7382 56.3257 13.155C56.9126 12.5537 57.9443 12.5537 58.5312 13.155ZM56.175 18.2298C56.175 17.5372 56.7364 16.9758 57.4289 16.9758C58.1215 16.9758 58.6829 17.5372 58.6829 18.2298V25.6535C58.6829 26.346 58.1215 26.9074 57.4289 26.9074C56.7364 26.9074 56.175 26.346 56.175 25.6535V18.2298ZM60.0778 14.3018C60.0778 13.6093 60.6392 13.0479 61.3317 13.0479C62.0242 13.0479 62.5856 13.6093 62.5856 14.3018V25.6435C62.5856 26.336 62.0242 26.8974 61.3317 26.8974C60.6392 26.8974 60.0778 26.336 60.0778 25.6435V14.3018Z" fill="#20BF55"/>
</svg>
