<svg width="17" height="15" viewBox="0 0 17 15" fill="none" xmlns="http://www.w3.org/2000/svg">
<path fill-rule="evenodd" clip-rule="evenodd" d="M10.8926 6.67717C10.8926 8.85769 9.10422 10.6254 6.89809 10.6254C4.69195 10.6254 2.90353 8.85769 2.90353 6.67717C2.90353 4.49664 4.69195 2.72898 6.89809 2.72898C9.10422 2.72898 10.8926 4.49664 10.8926 6.67717ZM12.3399 12.1207C11.568 11.4805 10.4519 11.5484 9.55095 11.9888C8.75127 12.3798 7.85064 12.5995 6.89809 12.5995C3.58889 12.5995 0.90625 9.94796 0.90625 6.67717C0.90625 3.40638 3.58889 0.754883 6.89809 0.754883C10.2073 0.754883 12.8899 3.40638 12.8899 6.67717C12.8899 7.0981 12.8455 7.50877 12.761 7.90485C12.5631 8.83299 12.7282 9.86578 13.4587 10.4716L16.3615 12.8791C16.784 13.2295 16.8392 13.8521 16.4846 14.2697C16.1301 14.6873 15.5002 14.7418 15.0777 14.3914L12.3399 12.1207Z" fill="#9B9B9B" fill-opacity="0.75"/>
</svg>
